<?xml version="1.0" encoding="UTF-8"?>
<svg version="1.1" viewBox="0 0 2048 485" width="1676" height="397" xmlns="http://www.w3.org/2000/svg">
<path transform="translate(229,10)" d="m0 0h46l1 5v18l21 4 3 1 3-10 5-12 5 1 38 14-1 6-5 13v4l17 10h4l11-13 2-3 4 2 14 12 13 11 5 4-2 4-11 13-1 2 7 8 8 10 11-6 8-5 3 1 11 20 10 17v3l-19 11 8 22 9-1 14-2 2 9 6 36-4 2-18 3-1 25 11 1 12 2-6 38-2 8-10-1-13-2-8 22 17 10 2 1-1 5-15 26-6 10-5-2-14-8h-3l-8 10-6 8 8 9 6 7-2 4-14 12-13 11-5 4-3-1-9-11-4-5-4 2-16 9 1 6 5 14v3l-18 7-25 9-8-21v-2l-11 3-14 2 1 23-1 1h-45l-1-1-1-23-21-4-2-1-3 10-5 13-9-3-35-13 7-19v-4l-16-9-4-2-13 15-1 2-5-2-11-10-11-9-9-8 2-4 12-14-6-8-8-9v-2l-12 6-8 5-3-1-16-28-6-11 17-10 3-3-7-18-1-3-13 2-10 1-2-7-6-35v-4l17-3h6v-25l-20-3-3-1 1-10 6-35 4-1 16 3h4l7-19 1-3-19-11v-3l16-28 6-10 12 6 9 5 11-13 4-6-11-12-3-4 2-4 14-12 11-9 7-6h2l8 10 6 7 4-2 16-9-2-9-5-13 9-4 32-12 3-1 8 21v2l12-3 12-1z" fill="#FDFDFD"/>
<path transform="translate(229,10)" d="m0 0h46l1 5v18l21 4 3 1 3-10 5-12 5 1 38 14-1 6-5 13v4l17 10h4l11-13 2-3 4 2 14 12 13 11 5 4-2 4-11 13-1 2 7 8 8 10 11-6 8-5 3 1 11 20 10 17v3l-19 11 8 22 9-1 14-2 2 9 6 36-4 2-18 3-1 25 11 1 12 2-6 38-2 8-10-1-13-2-8 22 17 10 2 1-1 5-15 26-6 10-5-2-14-8h-3l-8 10-6 8 8 9 6 7-2 4-14 12-13 11-5 4-3-1-9-11-4-5-4 2-16 9 1 6 5 14v3l-18 7-25 9-8-21v-2l-11 3-14 2 1 23-1 1h-45l-1-1-1-23-21-4-2-1-3 10-5 13-9-3-35-13 7-19v-4l-16-9-4-2-13 15-1 2-5-2-11-10-11-9-9-8 2-4 12-14-6-8-8-9v-2l-12 6-8 5-3-1-16-28-6-11 17-10 3-3-7-18-1-3-13 2-10 1-2-7-6-35v-4l17-3h6v-25l-20-3-3-1 1-10 6-35 4-1 16 3h4l7-19 1-3-19-11v-3l16-28 6-10 12 6 9 5 11-13 4-6-11-12-3-4 2-4 14-12 11-9 7-6h2l8 10 6 7 4-2 16-9-2-9-5-13 9-4 32-12 3-1 8 21v2l12-3 12-1zm8 56-20 3-22 6-18 8-15 8-14 10-15 13-7 7-11 14-10 15-8 16-6 14-6 23-3 24v19l2 17 4 19 6 18 9 19 11 17 8 10 9 10 9 9 17 13 19 11 16 7 15 5 20 4 20 2 23-1 24-4 24-8 16-8 14-8 14-11 12-11 11-12 11-15 12-22 7-19 5-19 2-13 1-12v-15l-2-20-5-22-7-19-8-16-10-16-11-13-11-12-11-9-14-10-16-9-18-8-17-5-16-3-9-1z" fill="#339150"/>
<path transform="translate(237,66)" d="m0 0h31l20 3 19 5 19 8 15 8 13 9 11 9 12 11 9 11 9 12 12 21 8 21 4 15 3 18 1 12v15l-2 19-4 19-7 20-8 16-8 14-11 14-11 12-12 11-15 11-22 12-19 7-15 4-19 3-23 1-20-2-20-4-18-6-19-9-17-11-10-8-10-9-9-9-13-17-11-19-7-16-5-15-5-25-1-11v-19l3-24 6-23 10-23 9-15 12-16 12-13 10-9 15-11 16-9 15-7 15-5 17-4zm2 47-17 3-18 6-17 9-11 8-12 11-10 11-10 16-8 17-5 18-2 16v17l3 20 7 21 8 15 10 14 17 17 14 10 16 8 13 5 20 4h31l16-3 17-6 19-10 13-10 15-15 11-16 8-16 5-15 3-16 1-19-2-20-5-19-10-21-10-14-11-12-10-9-15-10-15-7-15-5-18-3z" fill="#FDFDFD"/>
<path transform="translate(239,113)" d="m0 0h26l18 3 15 5 16 8 11 7 11 9 10 10 9 12 8 14 7 16 4 16 2 20-1 19-4 20-6 16-9 16-10 13-15 15-13 9-19 10-19 6-12 2h-31l-20-4-20-8-15-9-11-9-15-15-10-15-8-16-6-18-3-20v-17l3-20 5-16 9-19 10-14 9-10 7-7 12-9 16-9 15-6 17-4zm6 11-17 3-14 5-11 6-9 7-11 11-7 11-5 12-3 17 1 13 4 15 6 11-2 5-6 14-3 17 1 13 4 15 8 15 12 13 11 8 16 8 14 4 6 1h25l17-4 16-7 10-7 10-9 9-12 6-13 3-13v-19l-3-12-5-12-2-5 7-14 3-12v-20l-3-12-5-12-9-12-10-10-14-9-14-6-13-3-9-1z" fill="#39387A"/>
<path transform="translate(245,134)" d="m0 0h14l13 4 9 6 5 4 7 10 4 10 1 6v11l-2 5-3 3-4-1-3-6-2-15-6-12-8-7-9-4-11-1-12 3-8 6-6 7-3 7-1 13 3 10 5 8 7 6 11 5-2-10-6-7-1-9 3-6 2-2-1-4v-9l5-6 2-1h9l6 5 1 3v8l-1 4 4 5 1 9-3 6-5 5-1 10 10 3 8 6 6 7 4 8 1 3v17l-4 10-9 10-3 3 4 5 4 10v9l-4 10-6 7-12 6-1 9-3 3-5-1-1-1-1-10-12-6-6-7-4-10v-9l3-9 5-7-8-7-4-5-4-9-1-9 2-9 4-6 7-6 5-1-4 14v13l5 10 5 4 6 3v-21l-1-25-12-4-11-7-7-8-6-12-2-8v-13l3-11 6-10 7-8 10-6 8-3z" fill="#339150"/>
<path transform="translate(1758,265)" d="m0 0h13l10 16 17 29 14 23 1-67 2-1h12l3 2v100l-3 2h-13l-4-5-17-29-12-20-8-13-1 65-3 2h-12l-2-1v-102z" fill="#FDFDFD"/>
<path transform="translate(1325,265)" d="m0 0h13l7 10 15 26 9 15 10 17 1-66 3-2h11l3 1v102l-4 1h-12l-6-9-17-29-16-27-2-3-1 67-3 1h-11l-3-2v-100z" fill="#FDFDFD"/>
<path transform="translate(1047,98)" d="m0 0h13l8 16 13 28 14 29 1-71 2-2h11l2 1v112l-1 1h-13l-8-16-18-37-10-22-1 74-1 1h-12l-2-2v-110z" fill="#FDFDFD"/>
<path transform="translate(1522,98)" d="m0 0h13l17 35 13 28 5 11 1-72 2-2h11l2 1v112l-1 1h-13l-8-15-13-28-14-29-1-3-1 74-1 1h-12l-2-2v-111z" fill="#FDFDFD"/>
<path transform="translate(681,265)" d="m0 0h33l12 2 8 4 5 4 5 9 1 4v17l-3 8-7 8-5 3 2 6 17 34v4l-2 1h-15l-17-34-2-7h-17v39l-4 2h-11l-3-3v-99zm15 14v35h21l8-5 3-6v-12l-4-8-5-3-4-1z" fill="#FDFDFD"/>
<path transform="translate(1577,265)" d="m0 0h29l12 2 10 5 6 7 3 7 1 6v9l-3 10-4 6-7 6-2 1 2 5 12 25 6 11-1 3-2 1h-14l-5-8-12-25-3-6v-2h-17v39l-3 2h-12l-2-1v-102zm11 14v35h21l6-3 4-5 2-7-1-9-4-7-5-3-4-1z" fill="#FDFDFD"/>
<path transform="translate(1254,98)" d="m0 0h28l10 3 8 6 7 8 5 12 3 15v27l-3 15-7 14-5 6-10 6-8 2h-28l-2-5v-106zm13 16v82l1 1h11l7-2 6-5 6-12 2-11v-25l-4-16-6-8-6-4z" fill="#FDFDFD"/>
<path transform="translate(604,98)" d="m0 0h11l2 1v47l35-1 1-46 2-1h11l2 1v112l-2 1h-12l-1-1v-50h-36v50l-2 1h-12l-1-1v-112z" fill="#FDFDFD"/>
<path transform="translate(1465,97)" d="m0 0h15l9 4 6 5 5 8 3 9 1 10-1 1h-14l-4-14-4-5-5-2h-8l-6 4-5 8-3 14v31l3 13 5 9 5 4 2 1h11l6-3 2-2 1-23h-17l-1-1v-14h32l1 1v42l-4 6-7 6-10 4h-17l-8-3-9-8-6-10-4-13-1-6v-37l4-17 6-11 7-7z" fill="#FDFDFD"/>
<path transform="translate(1628,97)" d="m0 0h15l10 5 8 9 5 11 3 11 1 8v28l-3 17-5 12-9 10-10 5h-15l-10-5-8-9-5-10-4-18v-32l3-15 8-16 9-8zm2 16-7 6-5 11-2 11v28l3 14 4 8 7 6 8 1 8-4 5-8 3-10 1-8v-26l-3-15-5-9-5-4-2-1z" fill="#FDFDFD"/>
<path transform="translate(1069,264)" d="m0 0h14l12 4 10 9 4 8 2 10-1 2h-16l-2-7-3-6v-2l-5-2-3-1h-11l-7 4-2 4v10l3 5 10 5 16 6 9 5 5 4 5 8 2 8v7l-3 10-7 8-9 5-9 2h-13l-13-4-10-7-6-10-2-10 1-2h16l3 9 2 4 7 4 3 1h11l8-4 3-8-2-9-4-4-12-5-15-6-10-7-6-8-2-9 1-10 5-10 7-6 9-4z" fill="#FDFDFD"/>
<path transform="translate(547,264)" d="m0 0h14l12 4 10 9 4 8 1 3v9h-16l-1-1-2-9-2-5-5-2-3-1h-11l-7 4-2 4v10l2 5 4 2 18 7 14 7 6 5 5 10 1 4v9l-4 11-7 7-8 4-9 2h-13l-13-4-6-4-5-5-5-8-2-11 1-1h16l3 9 5 6 7 3h11l8-4 3-8-2-9-4-4-12-5-15-6-10-7-5-6-2-5v-16l5-10 7-6 9-4z" fill="#FDFDFD"/>
<path transform="translate(773,97)" d="m0 0h15l9 4 7 6 6 12 1 4v10h-14l-1-1-2-10-3-6-6-3h-9l-6 4-2 4-1 8 3 9 9 6 17 8 10 9 5 11 1 13-2 10-5 9-7 6-8 3h-17l-12-6-8-9-4-11v-10h14l2 7 3 7 4 4 4 2h11l6-4 2-4v-13l-4-6-10-6-16-8-7-6-5-9-2-8v-9l2-9 6-9 7-6z" fill="#FDFDFD"/>
<path transform="translate(1704,97)" d="m0 0h15l10 5 5 5 5 7 3 10v8l-1 1h-13l-5-15-5-4-2-1h-9l-6 4-3 8 1 10 5 6 24 12 8 7 5 10 1 4v16l-4 11-4 5-10 6-3 1h-17l-9-4-8-7-5-8-2-6-1-9 1-2h14l4 13 4 5 5 2h11l5-3 3-6v-11l-3-6-9-6-14-6-9-7-6-8-3-9v-13l3-10 7-9 6-4z" fill="#FDFDFD"/>
<path transform="translate(1148,97)" d="m0 0h15l9 4 7 6 5 9 2 6v11h-14l-1-1-2-11-4-6-5-2h-9l-5 3-3 6v12l4 6 16 8 11 6 7 7 4 8 2 9v8l-3 12-6 8-7 5-6 2h-17l-12-6-7-8-4-9-1-4v-8l1-1h13l2 7 5 10 6 3h11l6-4 3-9-2-11-7-6-19-9-9-7-6-10-2-9 1-13 4-9 7-8z" fill="#FDFDFD"/>
<path transform="translate(605,265)" d="m0 0h55l5 2v11l-1 1h-44v19l-1 10h36l4 2v11l-1 1h-38v32l44 1 1 1v12l-2 1h-58l-3-2v-100z" fill="#FDFDFD"/>
<path transform="translate(1251,265)" d="m0 0h54l3 1v12l-1 1h-44v29h36l3 1 1 2v9l-1 2h-39l1 32 44 1 1 1v11l-3 2h-57l-3-2v-101z" fill="#FDFDFD"/>
<path transform="translate(972,265)" d="m0 0h56l3 1v12l-1 1h-44v29h36l3 1v13h-39l1 32 44 1 1 1v11l-3 2h-57l-3-2v-101z" fill="#FDFDFD"/>
<path transform="translate(1497,265)" d="m0 0h55l5 2v11l-1 1h-44v29h36l3 1v12l-1 1h-38v33h45v13l-2 1h-58l-2-1v-102z" fill="#FDFDFD"/>
<path transform="translate(992,98)" d="m0 0h13l7 24 24 86v3l-2 1h-13l-4-13-4-15-30-1-1 8-6 21h-14l-1-4 24-87 6-22zm6 30-6 21-4 15v4h21l-2-11-8-29z" fill="#FDFDFD"/>
<path transform="translate(1388,98)" d="m0 0h12l3 7 16 58 12 43v5l-1 1h-13l-3-8-5-18v-3h-30l-4 18-3 10-1 1h-13l-1-1 1-8 24-87 5-17zm5 30-10 40h22l-9-36-2-4z" fill="#FDFDFD"/>
<path transform="translate(530,98)" d="m0 0h34l10 3 8 7 5 8 3 12v12l-3 12-5 8-6 5-7 3-6 1h-20v26l-1 16-1 1h-12l-1-1-1-12v-83l1-17zm13 16-1 9v30l1 1h18l8-3 4-6 2-8-1-12-5-8-4-3z" fill="#FDFDFD"/>
<path transform="translate(912,264)" d="m0 0h13l10 3 9 6 7 10 3 10v7h-17l-3-11-4-7-6-3h-11l-8 5-4 6-3 10v34l4 12 6 7 5 2h10l8-4 4-8 2-9h16l1 1-1 10-6 12-7 7-8 4-9 2h-12l-12-4-10-9-5-8-4-13-1-7v-24l3-14 7-14 9-8 9-4z" fill="#FDFDFD"/>
<path transform="translate(1189,264)" d="m0 0h13l10 3 9 6 6 8 4 12v7h-17l-3-12-4-6-6-3h-11l-8 5-6 12-1 4v34l4 12 5 6 6 3h10l8-4 4-8 2-9h16l1 1-1 10-4 9-7 8-7 5-12 3h-12l-10-3-8-6-6-7-4-8-3-11-1-8v-20l3-16 7-14 9-8 9-4z" fill="#FDFDFD"/>
<path transform="translate(1879,264)" d="m0 0h13l10 3 9 6 6 9 3 7 1 11h-17l-4-13-2-5-5-2-3-1h-10l-8 5-5 8-2 7-1 8v20l2 12 5 10 6 5 3 1h10l6-3h2l2-5 4-13h16l1 1-1 10-6 12-7 7-11 5-6 1h-12l-12-4-10-9-6-10-3-10-1-8v-25l3-14 5-10 8-9 12-6z" fill="#FDFDFD"/>
<path transform="translate(753,265)" d="m0 0h15l4 10 20 64 10-31 13-42 1-1h15l2 1-1 8-31 92-2 3h-14l-4-10-30-89v-4z" fill="#FDFDFD"/>
<path transform="translate(882,97)" d="m0 0h15l10 5 8 9 4 10 2 10v5l-1 1h-14l-4-16-3-5-6-3h-8l-6 4-4 6-3 9-1 6v34l3 13 6 10 4 2h10l6-4 4-11 2-8h14l1 1-1 10-4 12-6 8-6 5-8 3h-15l-9-4-7-7-7-14-3-14v-38l4-16 5-10 6-7 9-5z" fill="#FDFDFD"/>
<path transform="translate(1883,97)" d="m0 0h15l10 5 8 9 4 10 2 9v6l-1 1h-14l-4-16-4-6-5-2h-8l-6 4-5 9-3 13v33l3 13 5 9 5 3h10l6-4 4-10 2-9h14l1 1-1 11-5 13-9 10-10 4h-15l-10-5-8-9-5-11-3-14v-38l4-16 5-10 9-9z" fill="#FDFDFD"/>
<path transform="translate(677,98)" d="m0 0h14l4 9 13 34 2 5 2-2 16-43 2-3h14l1 5-26 65-1 43-2 1h-12l-1-1-1-42-11-28-14-35-2-6z" fill="#FDFDFD"/>
<path transform="translate(1750,98)" d="m0 0h62l2 1v14l-9 1h-16v96l-2 2h-12l-2-2-1-96h-22l-2-1v-14z" fill="#FDFDFD"/>
<path transform="translate(1411,265)" d="m0 0h66l6 2v11l-1 1h-28l-1 89-4 1h-10l-2-1-1-19v-69l-28-1-1-1v-11z" fill="#FDFDFD"/>
<path transform="translate(245,134)" d="m0 0h14l13 4 9 6 5 4 7 10 4 10 1 6v11l-2 5-3 3-4-1-3-6-2-15-6-12-8-7-9-4-11-1-12 3-8 6-6 7-3 7-1 13 3 10 5 8 7 6 11 6v12l-13-4-11-7-7-8-6-12-2-8v-13l3-11 6-10 7-8 10-6 8-3z" fill="#339150"/>
<path transform="translate(248,158)" d="m0 0h9l6 5 1 3v8l-1 4 4 5 1 9-3 6-5 5-2 69h-11l-2-59-1-11-6-7-1-9 3-6 2-2-1-4v-9l5-6z" fill="#39387A"/>
<path transform="translate(1720,265)" d="m0 0h11l3 1 1 2v98l-3 3h-12l-3-2v-100z" fill="#FDFDFD"/>
<path transform="translate(848,265)" d="m0 0h11l3 1v102l-3 1h-11l-3-2v-101z" fill="#FDFDFD"/>
<path transform="translate(1827,98)" d="m0 0h11l3 2v110l-2 2h-12l-1-1-1-8v-77l1-27z" fill="#FDFDFD"/>
<path transform="translate(1332,98)" d="m0 0h11l2 1v112l-1 1h-13l-1-2v-110z" fill="#FDFDFD"/>
<path transform="translate(937,98)" d="m0 0h10l3 1v112l-2 1h-12l-1-1v-112z" fill="#FDFDFD"/>
<path transform="translate(826,98)" d="m0 0h11l2 1v112l-1 1h-12l-2-2v-110z" fill="#FDFDFD"/>
<path transform="translate(259,226)" d="m0 0 6 2 6 5 5 10v11l-5 10-8 6-5 2v-37z" fill="#FDFDFD"/>
<path transform="translate(1686,351)" d="m0 0h15l1 1v14l-4 13-7 9-7-1-5-4 2-5 3-9 1-17z" fill="#FDFDFD"/>
<path transform="translate(251,284)" d="m0 0h6v52l-3 3-5-1-1-1-1-52z" fill="#313074"/>
<path transform="translate(1195,92)" d="m0 0h11l2 1v20l-1 18-1 1h-9l-2-1z" fill="#FDFDFD"/>
<path transform="translate(228,81)" d="m0 0 8 1 5 6 1 5-3 6-4 3h-9l-5-4-1-2v-8l5-6z" fill="#0E0D59"/>
<path transform="translate(138,133)" d="m0 0 6 1 5 5 1 7-6 9h-4l-13-11 3-5 6-5z" fill="#13125D"/>
<path transform="translate(383,274)" d="m0 0 10 3 9 4-2 5-3 2-12 2 11 4 1 3-2 2-17-6-1-5 7-3 9-2-11-4z" fill="#1A1962"/>
<path transform="translate(104,187)" d="m0 0 8 1 11 3 1 3-3 4-13 4 11 3 1 4-3 1-17-5-1-2 2-4 8-3 5-1-10-4-1-2z" fill="#171660"/>
<path transform="translate(210,85)" d="m0 0h2l6 17-1 3-5 1-10-9-2-1 4 10-1 4h-3l-4-10-2-9 5-2 13 10-4-9v-4z" fill="#14135D"/>
<path transform="translate(274,372)" d="m0 0h7l4 5 1 3v8l-5 5-6-1-4-6v-10z" fill="#13125C"/>
<path transform="translate(354,326)" d="m0 0 4 2 11 10-1 4-7 6-6-1-2-2v-6l-6-1-2-1 2-4 10 2v-2l-5-5z" fill="#12115C"/>
<path transform="translate(358,122)" d="m0 0h2l7 9-1 5-3 3-5-1-2 9-3-1-1-5 2-6h-2l-5 4-2-1 1-4z" fill="#13125D"/>
<path transform="translate(256,374)" d="m0 0h7l3 3-1 5-1 3 3 1v5l-5 4h-5l-4-4v-5l3-1v-2l-3-1-1-3z" fill="#403F7C"/>
<path transform="translate(182,96)" d="m0 0h5l-1 4-6 3-2 2 1 5 3 3 6-1 2-4h-5v-4l3-2 4 1 3 6-1 4-5 4-2 1h-7l-5-4-2-4v-6l5-6z" fill="#12115C"/>
<path transform="translate(257,285)" d="m0 0 4 2 6 7 1 7-3 7-7 6h-1z" fill="#FDFDFD"/>
<path transform="translate(157,112)" d="m0 0 6 1 14 8v3l-4 1-3-2-5 4v6l-4 1-5-18z" fill="#2B2A6D"/>
<path transform="translate(134,307)" d="m0 0h3l1 4-5 3h-2l4 6v2l6-4h4l1 4-9 5-7 5h-2l-1-4 4-3h2l-5-7-5 3-3-1 1-4z" fill="#16155F"/>
<path transform="translate(115,213)" d="m0 0 4 1-2 4-3 1-1 7 4 3-1 4-16-8-3-3v-3z" fill="#191861"/>
<path transform="translate(245,286)" d="m0 0h2l1 13v15l-4-2-6-7-1-8 4-8z" fill="#FDFDFD"/>
<path transform="translate(239,373)" d="m0 0 6 1 4 5-1 6-7 9h-5l4-7-5-2-2-3 1-5z" fill="#16155F"/>
<path transform="translate(387,256)" d="m0 0 19 4-1 11-1 3-4-1 1-7 1-2-4 1-2 7-4-1 2-9h-3l-3 9-4-1 2-12z" fill="#15145E"/>
<path transform="translate(399,187)" d="m0 0h2l3 10v4h-4l-1-2v-6l-4 2 2 7-5 1-1-8-4 2 2 5-1 4-4-1-2-8v-5z" fill="#13125C"/>
<path transform="translate(365,311)" d="m0 0 5 2 12 9-2 5-5 6-4-1 2-4 2-5-4 2-2 3-4-1 2-4 3-5h-4l-4 6-4-1 2-5z" fill="#15145E"/>
<path transform="translate(342,109)" d="m0 0 4 2 7 6v2l-3 1-5-4-3 1 4 4 2 1-2 4-4-2-5-3 1 4 5 4-1 4-4-2-8-6 4-6z" fill="#12115C"/>
<path transform="translate(139,331)" d="m0 0h5l4 4 4-1 3-3 3 3-14 14-6-5-3-5 2-5z" fill="#1C1B64"/>
<path transform="translate(325,100)" d="m0 0 7 1 4 3v3h-5v-2h-4l2 5 2 2-1 6-5 3-5-2-4-3v-4l5 1 1 2 4 1-2-5-3-4 1-5z" fill="#17165F"/>
<path transform="translate(116,274)" d="m0 0 5 1 4 5v7l-4-1-1-2v-4l-4-1v9l-3 3h-5l-4-4-1-8h4l1 7h4v-8z" fill="#181761"/>
<path transform="translate(394,236)" d="m0 0h8l5 4 2 5-1 6-3 3-3-4 2-4-2-4-6-1-4 4 1 7h-4l-2-2 1-9z" fill="#11105B"/>
<path transform="translate(297,88)" d="m0 0h8l5 5-1 2-4-1-7-1-2 2v7l2 2h6l2 4-1 1h-8l-6-5-1-2v-6l4-6z" fill="#16155F"/>
<path transform="translate(111,169)" d="m0 0h4l-2 10 9-7 5 2 2 2v6l-3 5-3 1-2-4 3-3 1-4-5 3-4 3-5-1-3-4z" fill="#13125D"/>
<path transform="translate(371,137)" d="m0 0 4 1-1 5-6 8 14-3 2 4-9 3-8 2h-5l-1-4 9-14z" fill="#13125C"/>
<path transform="translate(399,207)" d="m0 0 5 1 3 4v8l-4-1v-7h-4l-1 8-4 3-4-1-4-5v-6l1-2 4 1v7l3 1 2-9z" fill="#13125D"/>
<path transform="translate(385,168)" d="m0 0 7 1 5 6v7l-4-1-2-6-5-2-4 2-1 6 3 3v4l-5-1-3-5v-7l4-5z" fill="#12115C"/>
<path transform="translate(252,79)" d="m0 0 7 2-2 4-7-1 1 3 8 4v6l-5 4-7-1-2-1 2-4 7 1 1-3-7-2-3-5 3-5z" fill="#13125D"/>
<path transform="translate(113,244)" d="m0 0 3 1 2 4v7l-4 5-2 1h-9l-5-4-1-2v-8l3-2 2 4v5l2 2h6l3-2v-5l-2-4z" fill="#14135D"/>
<path transform="translate(128,294)" d="m0 0h2l1 4-7 4-6 10h-3l-1-4 5-7h-9l-2-5 15 1z" fill="#191861"/>
<path transform="translate(264,80)" d="m0 0 15 2 1 2-1 2h-6l-1 15-2 1-3-1 1-13 1-3h-5l-1-4z" fill="#2E2D71"/>
<path transform="translate(229,85)" d="m0 0 5 1 3 3-1 7-4 3-5-1-3-4v-5z" fill="#FDFDFD"/>
<path transform="translate(372,300)" d="m0 0 4 1 9 5h2l4-4 2 1-2 6-5 9-4-1 2-6-13-7z" fill="#14135D"/>
<path transform="translate(251,182)" d="m0 0 5 1 3 4-1 6-6 3-5-3-1-1v-6z" fill="#FDFDFD"/>
<path transform="translate(296,337)" d="m0 0 2 1-3 3-4 2-5 3-8 3-6 1h-29v-1l20-1 16-4 15-6z" fill="#0E0D59"/>
<path transform="translate(357,332)" d="m0 0 3 1-1 3h3l2 5-3 1v2h-5l-1-1-2 2v-6l-6-1-2-1 2-4 10 2z" fill="#2B2A6F"/>
<path transform="translate(224,371)" d="m0 0 4 1-1 9-3 11-4-1 2-12 1-2-5 2-1-4z" fill="#373678"/>
<path transform="translate(200,124)" d="m0 0 3 1-15 8-12 9-10 9-11 13-7 10-1-2 8-12 11-12 12-11 18-11z" fill="#181761"/>
<path transform="translate(331,143)" d="m0 0 4 1 11 11 9 12 8 14 6 13-1 4-8-18-7-12-12-14-7-7z" fill="#15145E"/>
<path transform="translate(137,138)" d="m0 0 7 1 2 3-1 5-4 4-8-7 1-4z" fill="#FDFDFD"/>
<path transform="translate(383,274)" d="m0 0 10 3 9 4-2 5-5 1 1-5-8-1-6-2z" fill="#12115C"/>
<path transform="translate(358,128)" d="m0 0 4 2v4l-4 6-2 7-3-1-1-5 2-6-1-3z" fill="#323175"/>
<path transform="translate(104,187)" d="m0 0 8 1 11 3 1 3-3 4h-5l3-3-13-3-3-3z" fill="#15145E"/>
<path transform="translate(96,236)" d="m0 0h21v4l-9 1h-11z" fill="#191861"/>
<path transform="translate(116,265)" d="m0 0h4l1 4-18 5h-2l-1-5z" fill="#13125D"/>
<path transform="translate(384,157)" d="m0 0 4 1v3l-15 9h-3l-1-4z" fill="#12115C"/>
<path transform="translate(285,83)" d="m0 0 3 1-1 9-3 11-4-1 1-8 3-11z" fill="#14135D"/>
<path transform="translate(194,368)" d="m0 0 5 1 2 2v5l-4 3-5-2-1-1v-5z" fill="#302F73"/>
<path transform="translate(302,370)" d="m0 0h5l3 4-1 4-2 2h-5l-3-4 2-5z" fill="#1F1E66"/>
<path transform="translate(144,123)" d="m0 0 4 1 7 7 4 5v3h-4l-7-8-5-5z" fill="#100F5A"/>
<path transform="translate(380,148)" d="m0 0h2l2 4-9 3-10 2 1-6 7-1z" fill="#14135D"/>
<path transform="translate(276,376)" d="m0 0 4 1 2 4v6l-4 2-3-4-1-6z" fill="#FDFDFD"/>
<path transform="translate(354,326)" d="m0 0 4 2 9 8-3 3-2-1v-2h-3v-3l-5-2-2-3z" fill="#13125D"/>
<path transform="translate(342,109)" d="m0 0 4 2 7 6v2l-3 1-5-4h-3v-2l-3-1z" fill="#1B1A62"/>
<path transform="translate(111,214)" d="m0 0h3l-2 6h-2l-1 4-4-1-1-2h2v-2l-4-1 3-2z" fill="#6B6A9C"/>
<path transform="translate(315,340)" d="m0 0 2 1-8 5-10 5-7-1 3-2 7-2 6-2z" fill="#14135D"/>
<path transform="translate(116,194)" d="m0 0 5 1-3 4-9 1-4-1v-2z" fill="#333275"/>
<path transform="translate(162,152)" d="m0 0h2l-2 4-10 12-4 6-1-2 8-12z" fill="#14135E"/>
<path transform="translate(191,145)" d="m0 0h2l-2 4-7 7-4 6h-2l2-5 9-10z" fill="#15145E"/>
<path transform="translate(340,116)" d="m0 0 2 1 4 4 2 1-2 4-4-2-5-4 2-1z" fill="#232269"/>
<path transform="translate(394,282)" d="m0 0h2l1 6-10-1-3-2 9-2z" fill="#333275"/>
<path transform="translate(155,331)" d="m0 0 3 3-8 8h-2v-5l4 1 1-6z" fill="#0F0E59"/>
<path transform="translate(239,378)" d="m0 0h5l1 4-2 2-5-1v-4z" fill="#FDFDFD"/>
<path transform="translate(108,296)" d="m0 0 11 1v2l2 1h-11z" fill="#14135E"/>
<path transform="translate(134,307)" d="m0 0h3l1 4-4 2h-5l2-4z" fill="#12115C"/>
<path transform="translate(115,213)" d="m0 0 4 1-2 4-3 1-2 5-2-4h2l1-4z" fill="#0D0C58"/>
<path transform="translate(224,371)" d="m0 0h2l-1 3h-2l-2 4-3 1-1-4z" fill="#16155F"/>
<path transform="translate(116,159)" d="m0 0 4 1 4 4-3 2-6-4z" fill="#16155F"/>
<path transform="translate(141,335)" d="m0 0 5 2v3l-4 2-2-3z" fill="#FDFDFD"/>
<path transform="translate(366,151)" d="m0 0h6l3 4-10 2z" fill="#313074"/>
<path transform="translate(269,89)" d="m0 0 2 4v9l-4-1 1-7z" fill="#100F5A"/>
<path transform="translate(225,378)" d="m0 0h1v7l-2 7h-3l3-10z" fill="#15145E"/>
<path transform="translate(360,337)" d="m0 0 4 2-1 3-5 1v-4z" fill="#FDFDFD"/>
<path transform="translate(249,332)" d="m0 0 4 3h2l1-2-1 5-4 1-2-1z" fill="#0D0C58"/>
<path transform="translate(358,128)" d="m0 0 4 2v4h-3l-3-3z" fill="#FDFDFD"/>
<path transform="translate(380,286)" d="m0 0h7l4 2-13 1-1 2 1-4z" fill="#100F5A"/>
<path transform="translate(250,167)" d="m0 0 5 1v4l-3 1-3-2z" fill="#FDFDFD"/>
<path transform="translate(264,80)" d="m0 0 4 1 2 4h-6l-1-4z" fill="#1A1962"/>
</svg>
